<svg width="124" height="29" viewBox="0 0 124 29" fill="none" xmlns="http://www.w3.org/2000/svg">
<path d="M0.205 29V0.649998H6.365C8.465 0.649998 10.1217 0.976664 11.335 1.63C12.5717 2.26 13.4467 3.21666 13.96 4.5C14.4967 5.78333 14.765 7.38167 14.765 9.295V19.725C14.765 21.7317 14.4967 23.4233 13.96 24.8C13.4467 26.1767 12.595 27.2267 11.405 27.95C10.2383 28.65 8.66333 29 6.68 29H0.205ZM4.16 26.165H6.4C7.84667 26.165 8.87333 25.885 9.48 25.325C10.0867 24.765 10.4483 23.9483 10.565 22.875C10.705 21.8017 10.775 20.5067 10.775 18.99V9.785C10.775 8.315 10.6817 7.125 10.495 6.215C10.3083 5.305 9.9 4.64 9.27 4.22C8.64 3.8 7.64833 3.59 6.295 3.59H4.16V26.165ZM19.712 29V0.649998H30.702V3.59H23.667V12.97H29.372V15.77H23.667V26.165H30.772V29H19.712ZM35.015 29V0.649998H46.005V3.59H38.97V12.97H44.675V15.77H38.97V26.165H46.075V29H35.015ZM50.3179 29V0.649998H57.3529C59.0562 0.649998 60.4096 0.964998 61.4129 1.595C62.4396 2.20167 63.1862 3.08833 63.6529 4.255C64.1196 5.42167 64.3529 6.83333 64.3529 8.49C64.3529 9.98333 64.0846 11.2783 63.5479 12.375C63.0346 13.4717 62.2646 14.3233 61.2379 14.93C60.2112 15.5133 58.9279 15.805 57.3879 15.805H54.2729V29H50.3179ZM54.2729 12.97H56.0929C57.2362 12.97 58.1346 12.8417 58.7879 12.585C59.4412 12.3283 59.9079 11.885 60.1879 11.255C60.4679 10.6017 60.6079 9.69167 60.6079 8.525C60.6079 7.17167 60.5029 6.13333 60.2929 5.41C60.1062 4.68667 59.6979 4.185 59.0679 3.905C58.4379 3.625 57.4579 3.485 56.1279 3.485H54.2729V12.97Z" fill="#0796EF"/>
<path d="M77.2323 29V0.649998H79.9273L87.9773 19.48V0.649998H91.2673V29H88.7473L80.5923 9.645V29H77.2323ZM96.7736 29V0.649998H107.764V3.59H100.729V12.97H106.434V15.77H100.729V26.165H107.834V29H96.7736ZM115.191 29V3.59H110.396V0.649998H123.801V3.59H119.146V29H115.191Z" fill="white"/>
</svg>
