<svg width="66" height="30" viewBox="0 0 66 30" fill="none" xmlns="http://www.w3.org/2000/svg">
<path d="M7.89 29.315C6.25667 29.315 4.89167 28.965 3.795 28.265C2.72167 27.565 1.905 26.5967 1.345 25.36C0.785 24.1233 0.458333 22.6883 0.365 21.055L3.865 20.11C3.935 21.1133 4.08667 22.0817 4.32 23.015C4.57667 23.9483 4.985 24.7183 5.545 25.325C6.105 25.9083 6.88667 26.2 7.89 26.2C8.91667 26.2 9.68667 25.92 10.2 25.36C10.7367 24.7767 11.005 23.9483 11.005 22.875C11.005 21.5917 10.7133 20.565 10.13 19.795C9.54667 19.0017 8.81167 18.2083 7.925 17.415L3.165 13.215C2.23167 12.3983 1.54333 11.5117 1.1 10.555C0.656667 9.575 0.435 8.37333 0.435 6.95C0.435 4.87333 1.03 3.26333 2.22 2.12C3.41 0.976666 5.03167 0.404999 7.085 0.404999C8.205 0.404999 9.185 0.556666 10.025 0.859999C10.8883 1.14 11.6 1.58333 12.16 2.19C12.7433 2.79667 13.1983 3.56667 13.525 4.5C13.875 5.41 14.1083 6.48333 14.225 7.72L10.865 8.63C10.795 7.69667 10.655 6.845 10.445 6.075C10.235 5.28167 9.86167 4.65167 9.325 4.185C8.81167 3.695 8.065 3.45 7.085 3.45C6.105 3.45 5.335 3.71833 4.775 4.255C4.23833 4.76833 3.97 5.53833 3.97 6.565C3.97 7.42833 4.11 8.14 4.39 8.7C4.69333 9.26 5.17167 9.83167 5.825 10.415L10.62 14.615C11.6933 15.5483 12.6383 16.6683 13.455 17.975C14.2717 19.2583 14.68 20.7867 14.68 22.56C14.68 23.96 14.3883 25.1733 13.805 26.2C13.2217 27.2033 12.4167 27.9733 11.39 28.51C10.3867 29.0467 9.22 29.315 7.89 29.315ZM26.043 29.315C24.1296 29.315 22.6013 28.9417 21.458 28.195C20.3146 27.4483 19.498 26.3867 19.008 25.01C18.518 23.61 18.273 21.9767 18.273 20.11V9.365C18.273 7.49833 18.518 5.9 19.008 4.57C19.5213 3.21667 20.338 2.19 21.458 1.49C22.6013 0.766666 24.1296 0.404999 26.043 0.404999C27.9563 0.404999 29.473 0.766666 30.593 1.49C31.713 2.21333 32.518 3.24 33.008 4.57C33.5213 5.9 33.778 7.49833 33.778 9.365V20.145C33.778 21.9883 33.5213 23.5983 33.008 24.975C32.518 26.3517 31.713 27.425 30.593 28.195C29.473 28.9417 27.9563 29.315 26.043 29.315ZM26.043 26.2C27.093 26.2 27.8863 25.99 28.423 25.57C28.9596 25.1267 29.3213 24.52 29.508 23.75C29.6946 22.9567 29.788 22.035 29.788 20.985V8.56C29.788 7.51 29.6946 6.61167 29.508 5.865C29.3213 5.095 28.9596 4.51167 28.423 4.115C27.8863 3.695 27.093 3.485 26.043 3.485C24.993 3.485 24.188 3.695 23.628 4.115C23.0913 4.51167 22.7296 5.095 22.543 5.865C22.3563 6.61167 22.263 7.51 22.263 8.56V20.985C22.263 22.035 22.3563 22.9567 22.543 23.75C22.7296 24.52 23.0913 25.1267 23.628 25.57C24.188 25.99 24.993 26.2 26.043 26.2ZM38.7152 29V0.649998H49.6702V3.485H42.6702V12.935H48.0952V15.735H42.6702V29H38.7152ZM56.552 29V3.59H51.757V0.649998H65.162V3.59H60.507V29H56.552Z" fill="#857878"/>
</svg>
